<svg xmlns="http://www.w3.org/2000/svg" version="1.1" xmlns:xlink="http://www.w3.org/1999/xlink" width="1000" height="1000"><g clip-path="url(#SvgjsClipPath1003)"><rect width="1000" height="1000" fill="#ffffff"></rect><g transform="matrix(3.5,0,0,3.5,150,150)"><svg xmlns="http://www.w3.org/2000/svg" version="1.1" xmlns:xlink="http://www.w3.org/1999/xlink" width="200" height="200"><svg xmlns="http://www.w3.org/2000/svg" version="1.1" xmlns:xlink="http://www.w3.org/1999/xlink" viewBox="0 0 200 200"><rect width="200" height="200" fill="url('#gradient')"></rect><defs><linearGradient id="gradient" gradientTransform="rotate(45 0.5 0.5)"><stop offset="0%" stop-color="#353664"></stop><stop offset="100%" stop-color="#211c36"></stop></linearGradient><clipPath id="SvgjsClipPath1003"><rect width="1000" height="1000" x="0" y="0" rx="350" ry="350"></rect></clipPath></defs><g><g fill="#fcfb9b" transform="matrix(5.12,0,0,5.12,7.403859395980831,135.89291969299316)" stroke="#a8dc9f" stroke-width="0"><path d="M5.39-2.34L5.39-2.34Q6.08-2.34 6.46-2.72Q6.85-3.10 6.84-3.77L6.84-3.77L9.92-3.77Q9.92-2.03 8.68-0.92Q7.43 0.20 5.47 0.20L5.47 0.20Q3.16 0.20 1.84-1.25Q0.51-2.70 0.51-5.25L0.51-5.25L0.51-5.39Q0.51-6.99 1.10-8.22Q1.69-9.44 2.80-10.10Q3.92-10.76 5.44-10.76L5.44-10.76Q7.50-10.76 8.71-9.62Q9.92-8.48 9.92-6.52L9.92-6.52L6.84-6.52Q6.84-7.34 6.44-7.78Q6.04-8.22 5.36-8.22L5.36-8.22Q4.08-8.22 3.87-6.59L3.87-6.59Q3.80-6.07 3.80-5.17L3.80-5.17Q3.80-3.57 4.18-2.96Q4.56-2.34 5.39-2.34ZM16.85-2.97L16.85-2.97Q16.85-3.39 16.41-3.64Q15.97-3.90 14.74-4.17Q13.51-4.44 12.71-4.89Q11.90-5.33 11.48-5.97Q11.06-6.60 11.06-7.42L11.06-7.42Q11.06-8.88 12.27-9.82Q13.47-10.76 15.41-10.76L15.41-10.76Q17.50-10.76 18.77-9.81Q20.04-8.87 20.04-7.32L20.04-7.32L16.74-7.32Q16.74-8.59 15.40-8.59L15.40-8.59Q14.88-8.59 14.53-8.31Q14.18-8.02 14.18-7.59L14.18-7.59Q14.18-7.15 14.61-6.88Q15.04-6.60 15.98-6.43Q16.92-6.25 17.64-6.01L17.64-6.01Q20.02-5.19 20.02-3.07L20.02-3.07Q20.02-1.62 18.74-0.71Q17.45 0.20 15.41 0.20L15.41 0.20Q14.05 0.20 12.99-0.29Q11.92-0.78 11.33-1.62Q10.73-2.46 10.73-3.39L10.73-3.39L13.81-3.39Q13.83-2.66 14.30-2.32Q14.77-1.98 15.50-1.98L15.50-1.98Q16.17-1.98 16.51-2.26Q16.85-2.53 16.85-2.97ZM22.10-13.19L25.39-13.19L25.39-10.57L27.13-10.57L27.13-8.28L25.39-8.28L25.39-3.45Q25.39-2.85 25.61-2.62Q25.82-2.38 26.46-2.38L26.46-2.38Q26.94-2.38 27.28-2.44L27.28-2.44L27.28-0.09Q26.39 0.20 25.42 0.20L25.42 0.20Q23.72 0.20 22.91-0.61Q22.10-1.41 22.10-3.04L22.10-3.04L22.10-8.28L20.75-8.28L20.75-10.57L22.10-10.57L22.10-13.19ZM35.66-14.22L35.66 0L32.36 0L32.36-10.51L29.12-9.56L29.12-12.06L35.36-14.22L35.66-14.22Z"></path></g></g></svg></svg></g></g></svg>